<svg width="43" height="39" viewBox="0 0 43 39" fill="none" xmlns="http://www.w3.org/2000/svg">
    <path fill-rule="evenodd" clip-rule="evenodd"
        d="M18.8515 2.15085C19.9757 1.35658 21.2747 1.1121 22.161 1.11705C24.1864 1.12837 25.66 1.8313 26.5631 3.05357C27.4049 4.19289 27.5664 5.5426 27.561 6.50989C27.5516 8.20475 27.098 9.72294 25.7692 10.7147C24.5528 11.6225 22.8975 11.8465 21.1291 11.8366L2.65111 11.7334C1.8227 11.7288 1.15485 11.0534 1.15943 10.225C1.16401 9.39662 1.83929 8.72881 2.6677 8.73343L21.1457 8.83667C22.7873 8.84585 23.5858 8.60071 23.9747 8.31043C24.2512 8.10408 24.5544 7.69517 24.5611 6.49313C24.5649 5.80351 24.434 5.22025 24.1503 4.83621C23.9278 4.53511 23.4427 4.12426 22.1444 4.11701C21.7339 4.11471 21.0858 4.24562 20.5827 4.60106C20.1569 4.90185 19.747 5.41458 19.7412 6.4662C19.7366 7.29462 19.0613 7.96243 18.2329 7.9578C17.4045 7.95317 16.7367 7.27786 16.7412 6.44944C16.7525 4.41104 17.65 2.99976 18.8515 2.15085ZM30.6087 4.69517C32.0669 3.50237 33.791 3.11336 34.9878 3.12004C37.7745 3.13561 39.6494 4.2553 40.7417 5.96701C41.7607 7.56403 41.9712 9.48021 41.9631 10.9358C41.9491 13.4715 41.3771 15.5688 39.7703 16.9569C38.2157 18.3001 36.0227 18.6795 33.5361 18.6656L2.61373 18.4928C1.78531 18.4882 1.11746 17.8129 1.12205 16.9845C1.12663 16.156 1.8019 15.4882 2.63032 15.4929L33.5527 15.6656C35.8545 15.6785 37.1078 15.2925 37.809 14.6868C38.458 14.1261 38.9511 13.0909 38.9632 10.9191C38.97 9.6822 38.7723 8.45771 38.2127 7.58065C37.7262 6.81828 36.8519 6.1305 34.9712 6.12C34.3471 6.11651 33.3364 6.3399 32.5081 7.01736C31.7408 7.645 30.9937 8.77076 30.9821 10.8745C30.9775 11.7029 30.3022 12.3707 29.4738 12.3661C28.6454 12.3615 27.9775 11.6861 27.9821 10.8577C27.9983 7.94016 29.0894 5.9378 30.6087 4.69517Z"
        fill="#4A7557" stroke="white" stroke-width="0.8" stroke-linecap="round" />
    <path fill-rule="evenodd" clip-rule="evenodd"
        d="M18.653 36.8398C19.7681 37.6463 21.0643 37.905 21.9506 37.9098C23.976 37.9206 25.4575 37.2339 26.3743 36.0216C27.2289 34.8916 27.4056 33.5437 27.4111 32.5764C27.4209 30.8816 26.9844 29.3585 25.6668 28.3522C24.4608 27.4311 22.8081 27.189 21.0398 27.1795L2.56172 27.0804C1.7333 27.0759 1.05787 27.7439 1.0531 28.5723C1.04834 29.4007 1.71603 30.0759 2.54445 30.0803L21.0225 30.1795C22.664 30.1883 23.4597 30.4422 23.8454 30.7367C24.1195 30.9461 24.4181 31.3583 24.4112 32.5603C24.4072 33.2499 24.2698 33.8317 23.9817 34.2126C23.7559 34.5113 23.2661 34.9168 21.9678 34.9098C21.5574 34.9076 20.9107 34.7696 20.4117 34.4087C19.9894 34.1032 19.5852 33.5861 19.5913 32.5344C19.5961 31.706 18.9284 31.0309 18.0999 31.0264C17.2715 31.022 16.5961 31.6899 16.5913 32.5183C16.5796 34.5567 17.4611 35.9778 18.653 36.8398ZM30.4381 34.4244C31.8828 35.6331 33.6024 36.041 34.7992 36.0474C37.5859 36.0624 39.4734 34.9633 40.5848 33.2636C41.6218 31.6779 41.8539 29.7641 41.8623 28.3085C41.8769 25.7729 41.3286 23.6695 39.7376 22.2638C38.1982 20.9037 36.0096 20.5003 33.5231 20.4869L2.60063 20.3209C1.77221 20.3165 1.09678 20.9845 1.09202 21.8129C1.08725 22.6413 1.75494 23.3165 2.58336 23.3209L33.5058 23.4869C35.8076 23.4992 37.0565 23.8989 37.7507 24.5123C38.3934 25.0801 38.8748 26.1206 38.8623 28.2924C38.8552 29.5293 38.6437 30.7515 38.0742 31.6224C37.5792 32.3794 36.6972 33.0576 34.8165 33.0475C34.1924 33.0441 33.1842 32.8097 32.3636 32.1232C31.6034 31.4872 30.8691 30.3533 30.8812 28.2496C30.886 27.4212 30.2183 26.746 29.3899 26.7415C28.5615 26.7371 27.886 27.405 27.8813 28.2335C27.8645 31.151 28.933 33.1652 30.4381 34.4244Z"
        fill="#4A7557" stroke="white" stroke-width="0.8" stroke-linecap="round" />
</svg>
