<svg width="191" height="138" fill="none" xmlns="http://www.w3.org/2000/svg">
    <g>
        <path
            d="M119.02 19.5598H72.4169C38.9063 1.1355 24.0428 24.6366 21.7048 31.5516c-2.338 6.9149-25.7202 66.9007-11.6924 86.6844 8.7165 12.293 21.8799 11.981 33.566 3.092 18.7073-20.483 20.2659-25.1963 22.6039-24.8474h56.6947c7.989 0 7.209 6.6834 23.212 21.7554 4.26 4.012 19.477 16.161 33.094 6.216 13.618-9.946 1.032-63.1944-6.963-88.5756-14.236-31.7007-42.11-24.0863-53.2-16.3166Z"
            fill="#FDFDFD" />
        <path
            d="M33.3073 107.031C14.9016 109.495 7.9405 92.6581 6.7606 83.9318-7.3976 132.439 37.7318 130.899 33.3073 127.05c-3.5395-3.08-1.4748-14.63 0-20.019ZM158.245 105.889c18.406 2.464 24.24-12.3675 25.419-21.0937 12.828 55.3867-31.567 44.1127-27.142 40.2627 3.539-3.08 3.198-13.78 1.723-19.169Z"
            fill="#EFD4F6" />
        <path
            d="M119.02 19.5598H72.4169C38.9063 1.1355 24.0428 24.6366 21.7048 31.5516c-2.338 6.9149-25.7202 66.9007-11.6924 86.6844 8.7165 12.293 21.8799 11.981 33.566 3.092 18.7073-20.483 20.2659-25.1963 22.6039-24.8474h56.6947c7.989 0 7.209 6.6834 23.212 21.7554 4.26 4.012 19.477 16.161 33.094 6.216 13.618-9.946 1.032-63.1944-6.963-88.5756-14.236-31.7007-42.11-24.0863-53.2-16.3166Z"
            stroke="#BEB7C3" stroke-width="3" />
        <path
            d="M147.046 34.7431c1.23 2.6876 1.221 5.8201-1.26 7.4223-2.438.9276-6.168-1.8298-7.398-4.5174-1.231-2.6875-.346-5.7326 1.974-6.8014 2.321-1.0688 5.453 1.2089 6.684 3.8965Z"
            fill="#AAF293" />
        <path
            d="M150.713 37.9506c-1.362 2.461-4.996 5.3506-7.228 4.107-2.233-1.2436-2.997-4.8791-1.566-7.4645 1.432-2.5854 5.111-4.819 7.344-3.5754 2.232 1.2436 2.882 4.3476 1.45 6.9329Z"
            fill="#AAF293" />
        <path
            d="M143.798 41.9698c-3.702-4.3234-2.962-9.557-1.325-11.4532-.351-.2655-5.105 0-4.637 4.8923.374 3.9138 4.949 7.1298 5.962 6.5609Z"
            fill="#74B98A" stroke="#74B98A" />
        <path
            d="M139.044 31.5785c2.026-2.0935 4.559-.8723 5.572 0 2.93-1.9418 4.832-.7585 5.494 0 2.182 2.3058 1.065 5.4358.234 6.7126-.857 1.3147-3.234 3.9366-5.884 3.9062-2.65-.0303-4.949-2.6168-5.767-3.9062-.779-1.3526-1.8-4.5889.351-6.7126Z"
            stroke="#5C8E6C" stroke-width="2" />
        <ellipse cx="1.9899" cy="1.758" rx="1.9899" ry="1.758"
            transform="matrix(.8248 -.56543 .56894 .82238 145.25 34.9615)" fill="#FDFDFD" />
        <path
            d="M147.046 57.9313c1.23 2.6876 1.221 5.8202-1.26 7.4224-2.438.9276-6.168-1.8298-7.398-4.5174-1.231-2.6876-.346-5.7327 1.974-6.8015 2.321-1.0687 5.453 1.209 6.684 3.8965Z"
            fill="#A5A5F6" />
        <path
            d="M150.713 61.1389c-1.362 2.4609-4.996 5.3505-7.228 4.1069-2.233-1.2436-2.997-4.8791-1.566-7.4645 1.432-2.5853 5.111-4.819 7.344-3.5754 2.232 1.2436 2.882 4.3476 1.45 6.933Z"
            fill="#A5A5F6" />
        <path
            d="M143.798 65.158c-3.702-4.3233-2.962-9.5569-1.325-11.4531-.351-.2655-5.105 0-4.637 4.8922.374 3.9138 4.949 7.1298 5.962 6.5609Z"
            fill="#8888E6" stroke="#8888E6" />
        <path
            d="M139.044 54.7667c2.026-2.0934 4.559-.8722 5.572 0 2.93-1.9417 4.832-.7585 5.494 0 2.182 2.3058 1.065 5.4359.234 6.7127-.857 1.3147-3.234 3.9365-5.884 3.9062-2.649-.0304-4.948-2.6168-5.767-3.9062-.779-1.3527-1.8-4.5889.351-6.7127Z"
            stroke="#6667A4" stroke-width="2" />
        <ellipse cx="1.9899" cy="1.758" rx="1.9899" ry="1.758"
            transform="matrix(.8248 -.56543 .56894 .82238 145.25 57.9615)" fill="#FDFDFD" />
        <path
            d="M159.514 45.5643c1.231 2.6876 1.221 5.8201-1.259 7.4223-2.438.9276-6.168-1.8298-7.399-4.5174-1.23-2.6875-.346-5.7327 1.975-6.8014 2.321-1.0688 5.453 1.2089 6.683 3.8965Z"
            fill="#E16867" />
        <path
            d="M163.182 48.7718c-1.362 2.4609-4.996 5.3506-7.228 4.107-2.233-1.2436-2.997-4.8791-1.566-7.4645 1.432-2.5854 5.111-4.819 7.344-3.5754 2.232 1.2436 2.882 4.3476 1.45 6.9329Z"
            fill="#E16867" />
        <path
            d="M156.266 52.791c-3.701-4.3234-2.961-9.557-1.325-11.4532-.35-.2655-5.104 0-4.636 4.8922.374 3.9139 4.948 7.1299 5.961 6.561Z"
            fill="#CB5552" stroke="#CB5552" />
        <path
            d="M151.513 42.3997c2.026-2.0935 4.559-.8723 5.572 0 2.93-1.9418 4.831-.7585 5.494 0 2.182 2.3058 1.065 5.4358.234 6.7126-.858 1.3147-3.235 3.9365-5.884 3.9062-2.65-.0303-4.949-2.6168-5.767-3.9062-.779-1.3527-1.8-4.5889.351-6.7126Z"
            stroke="#8A5251" stroke-width="2" />
        <ellipse cx="2.057" cy="1.8411" rx="2.057" ry="1.8411"
            transform="matrix(.81499 -.57948 .5549 .83191 157.201 45.4796)" fill="#FDFDFD" />
        <path
            d="M133.018 45.5643c1.23 2.6875 1.221 5.8201-1.259 7.4223-2.439.9276-6.169-1.8298-7.399-4.5174-1.23-2.6875-.346-5.7327 1.975-6.8014 2.32-1.0688 5.453 1.2089 6.683 3.8965Z"
            fill="#FFE788" />
        <path
            d="M136.686 48.7718c-1.363 2.4609-4.996 5.3505-7.229 4.107-2.232-1.2436-2.997-4.8791-1.565-7.4645 1.431-2.5854 5.11-4.819 7.343-3.5754 2.233 1.2436 2.882 4.3475 1.451 6.9329Z"
            fill="#FFE788" />
        <path
            d="M129.77 52.791c-3.702-4.3234-2.962-9.557-1.325-11.4532-.351-.2655-5.105 0-4.637 4.8922.374 3.9139 4.949 7.1298 5.962 6.561Z"
            fill="#F1D565" stroke="#F1D565" />
        <path
            d="M125.016 42.3996c2.026-2.0934 4.559-.8722 5.572 0 2.93-1.9417 4.832-.7584 5.494 0 2.182 2.3059 1.065 5.4359.234 6.7127-.857 1.3147-3.234 3.9365-5.884 3.9062-2.649-.0303-4.948-2.6168-5.767-3.9062-.779-1.3527-1.8-4.5889.351-6.7127Z"
            stroke="#D7BC56" stroke-width="2" />
        <ellipse cx="2.057" cy="1.8411" rx="2.057" ry="1.8411"
            transform="matrix(.81499 -.57948 .5549 .83191 130.705 45.4796)" fill="#FDFDFD" />
    </g>
    <path
        d="M57.7728 70.0189c-34.29 27.8259-30.3932 49.9831-24.1586 57.1981 10.9105-1.546 23.2456-18.551 30.7791-28.5993l62.3457-.7729c11.845 17.9322 25.331 26.0222 30.007 28.5992 15.587-16.696-8.053-44.5734-21.821-56.4251H57.7728Z"
        fill="#323254" stroke="#201F4B" stroke-width="2" />
    <ellipse cx="48.7833" cy="45.413" rx="15.7833" ry="15.413" fill="#D4A4E2" />
    <path
        d="M62.199 43.1011c-10.9204 18.3791-21.7128 7.6579-26.8317 0L33.5 45.413c5.5242 17.043 15.2594 17.043 21.9219 13.1898 3.7668-2.9619 6.7144-9.0503 8.6206-13.1898l-1.8435-2.3119Z"
        fill="#B47AC6" stroke="#B47AC6" />
    <path
        d="M63 43.1011c-12.5-11.1011-24.9269-4.5424-29 0L35.3675 38.5c12.3823-13.3244 21.9949-6.0566 25.2534 0L63 43.1011Z"
        fill="#EFD4F6" stroke="#EFD4F6" />
    <path
        d="M63.5667 45.413c0 7.9379-6.5962 14.413-14.7834 14.413C40.5962 59.826 34 53.3509 34 45.413 34 37.4752 40.5962 31 48.7833 31c8.1872 0 14.7834 6.4752 14.7834 14.413Z"
        stroke="#201F4B" stroke-width="2" />
    <path
        d="M45.6263 37.1652c0-.5523.4478-1 1-1h4.3134c.5523 0 1 .4477 1 1V52.736c0 .5523-.4477 1-1 1h-4.3134c-.5522 0-1-.4477-1-1V37.1652Z"
        fill="#201F4B" />
    <rect width="5.857" height="18.9401" rx="1"
        transform="rotate(-89.4781 43.8151 4.103) skewX(.0523)" fill="#201F4B" />
    <ellipse cx="126.562" cy="78.826" rx="13.9099" ry="14" fill="#D4A4E2" />
    <path
        d="M139 76.2511c-8.501-11.1818-20.758-6.2511-25 .0001l.5-2.7512c11.537-12.9474 22.721-4.5 23.751-.2047l.749 2.9558Z"
        fill="#EFD4F6" stroke="#EFD4F6" />
    <path d="M122 76h-8v7.7778l8.356 7.7778h8.356l8.355-7.7778V76H131l-4.5 7-4.5-7Z"
        fill="#B47AC6" />
    <path
        d="M123.771 66.4731c-.269 3.2948-2.643 9.8896-9.99 9.9098M128.78 66.4731c.31 3.2914 2.765 9.8575 10.111 9.7904M128.873 91.2702c.247-3.2966 2.578-9.9064 9.925-9.9735M123.863 91.1786c-.309-3.2915-2.764-9.8576-10.11-9.7904"
        stroke="#201F4B" stroke-width="2" />
    <path
        d="M139.652 78.826c0 7.1669-5.894 13-13.193 13-7.298 0-13.192-5.8331-13.192-13s5.894-13 13.192-13c7.299 0 13.193 5.8331 13.193 13Z"
        stroke="#201F4B" stroke-width="2" />
    <circle cx="68.2534" cy="78.826" r="13" fill="#D4A4E2" stroke="#D4A4E2" stroke-width="2" />
    <path
        d="M79.92 76.4927c-8.7111-11.8222-18.6667-5.4444-22.5556-.7778l-.7777-1.5555c11.8222-13.6889 21-4.6667 24.1111 1.5555l-.7778.7778Z"
        fill="#EFD4F7" stroke="#EFD4F7" />
    <path
        d="M68 87.0645c-7.6 0-10-7.6774-11.5-12.0645l-.5 7.6774 3 5.4839L64.5 92H71l6.5-3.2903 3.5-6.0323L80 75c-2.8 11.4065-9.1667 12.2473-12 12.0645Z"
        fill="#B57AC6" />
    <circle cx="68.2534" cy="78.826" r="13" stroke="#201F4B" stroke-width="2" />
    <path
        d="M74.6651 78.826c0 3.5411-2.8707 6.4118-6.4118 6.4118-3.5411 0-6.4117-2.8707-6.4117-6.4118 0-3.5411 2.8706-6.4118 6.4117-6.4118 3.5411 0 6.4118 2.8707 6.4118 6.4118Z"
        fill="#D4A4E2" stroke="#201F4B" stroke-width="2" />
    <path
        d="M56.0511 2.6813C46.959 5.773 35.0096 11.1836 28.7749 13.5026c-3.1171 1.1594-.9102 6.0198-.1572 8.7326 24.8125-14.6563 42.1356-1.6227 47.6956 7.4991h34.2897c16.21-22.8791 40.525-15.2012 50.656-8.5024 3.117-4.9469.26-7.7294-1.559-8.5024C130.086.3625 126.969 2.6813 124.631 2.6813c-1.87 0-7.014 4.6376-9.352 6.9565H71.6375C65.403-.4104 57.6097 2.1512 56.0511 2.6813Z"
        fill="#323254" />
    <path
        d="M28.7749 21.2319c-.0514-.1698-.1572 1.0033-.1572 1.0033m0 0c-.753-2.7128-2.9599-7.5732.1572-8.7326 6.2347-2.319 18.1841-7.7296 27.2762-10.8213 1.5586-.53 9.3519-3.0917 15.5864 6.9565h43.6415c2.338-2.3189 7.482-6.9565 9.352-6.9565 2.338 0 5.455-2.3189 35.069 10.0482 1.819.773 4.676 3.5555 1.559 8.5024-10.131-6.6988-34.446-14.3767-50.656 8.5024H76.3133c-5.56-9.1218-22.8831-22.1554-47.6956-7.4991Z"
        stroke="#201F4B" stroke-width="3" />
    <path transform="matrix(.94836 -.3172 .32192 .94677 26.9315 21.523)" fill="#201F4B"
        stroke="#201F4B" d="M.6351.3148h3.1132v1.1303H.6351z" />

</svg>