<svg width="48" height="39" viewBox="0 0 48 39" fill="none" xmlns="http://www.w3.org/2000/svg">
    <path
        d="M16.0465 5.91264C20.0856 6.92352 24.512 10.4705 26.2918 11.5257C34.3671 10.6197 36.184 10.9525 37.3381 11.2413C41.9543 12.3966 43.0527 15.1107 43.5468 18.2834C44.0834 35.4919 39.3334 37.799 36.4138 37.2312C31.5025 36.2761 29.6564 32.1349 28.3305 30.3298C25.5864 26.594 22.7013 25.872 22.7013 25.872C19.8162 25.1499 16.978 26.5245 15.636 27.1527C9.52414 30.0136 6.40874 29.7217 5.25472 29.4329C-2.59277 27.4689 3.50838 14.3608 7.25267 9.19992C8.98117 7.19334 11.4303 4.75733 16.0465 5.91264Z"
        fill="#4A7557" stroke="white" />
    <path
        d="M38.1943 7.79683C34.788 6.94432 34.0817 8.96282 33.9262 10.3874L40.7389 12.0924C42.0203 8.90072 39.8975 8.22309 38.1943 7.79683Z"
        fill="#4A7557" stroke="white" stroke-linecap="round" />
    <path
        d="M16.1992 2.34083C12.7929 1.48833 12.0866 3.50682 11.9311 4.93142L18.7438 6.63645C20.0252 3.44473 17.9023 2.76709 16.1992 2.34083Z"
        fill="#4A7557" stroke="white" stroke-linecap="round" />
    <path
        d="M37.4379 18.5838C37.3469 18.9472 36.9751 19.1721 36.6031 19.079C36.2311 18.9859 36.0089 18.6124 36.0999 18.2489C36.1909 17.8854 36.5627 17.6606 36.9347 17.7537C37.3068 17.8468 37.5289 18.2203 37.4379 18.5838Z"
        fill="#4A7557" stroke="white" />
    <path
        d="M34.5553 20.3015C34.4644 20.665 34.0925 20.8899 33.7205 20.7968C33.3485 20.7037 33.1264 20.3301 33.2173 19.9667C33.3083 19.6032 33.6802 19.3783 34.0522 19.4714C34.4242 19.5645 34.6463 19.9381 34.5553 20.3015Z"
        fill="#4A7557" stroke="white" />
    <path
        d="M39.1715 21.4568C39.0806 21.8203 38.7087 22.0451 38.3367 21.952C37.9647 21.8589 37.7426 21.4854 37.8335 21.1219C37.9245 20.7585 38.2964 20.5336 38.6684 20.6267C39.0404 20.7198 39.2625 21.0933 39.1715 21.4568Z"
        fill="#4A7557" stroke="white" />
    <path
        d="M36.289 23.1745C36.198 23.538 35.8261 23.7628 35.4541 23.6697C35.0821 23.5766 34.86 23.2031 34.951 22.8396C35.0419 22.4762 35.4138 22.2513 35.7858 22.3444C36.1578 22.4375 36.3799 22.8111 36.289 23.1745Z"
        fill="#4A7557" stroke="white" />
    <rect x="13.1849" y="11.8098" width="1.37927" height="8.46479" rx="0.5"
        transform="rotate(14.051 13.1849 11.8098)" fill="#4A7557" stroke="white" />
    <path
        d="M8.64475 15.2912L8.73109 14.9353C8.79619 14.6669 9.06651 14.5022 9.33485 14.5674L16.6397 16.3409C16.9081 16.4061 17.0728 16.6764 17.0077 16.9448L16.9214 17.3007C16.8563 17.569 16.586 17.7338 16.3176 17.6686L9.01275 15.8951C8.7444 15.8299 8.57964 15.5595 8.64475 15.2912Z"
        fill="#4A7557" stroke="white" />
    <path
        d="M20.7698 15.843L20.8562 15.4871C20.9213 15.2188 21.1916 15.054 21.46 15.1192L22.9846 15.4893C23.2529 15.5544 23.4177 15.8247 23.3526 16.0931L23.2662 16.449C23.2011 16.7173 22.9308 16.8821 22.6624 16.8169L21.1378 16.4468C20.8694 16.3817 20.7047 16.1113 20.7698 15.843Z"
        fill="#4A7557" stroke="white" />
    <path
        d="M26.5401 17.2871L26.6264 16.9313C26.6915 16.6629 26.9619 16.4982 27.2302 16.5633L28.7548 16.9334C29.0232 16.9985 29.1879 17.2689 29.1228 17.5373L29.0365 17.8931C28.9714 18.1615 28.701 18.3262 28.4327 18.2611L26.908 17.891C26.6397 17.8258 26.4749 17.5555 26.5401 17.2871Z"
        fill="#4A7557" stroke="white" />
</svg>
