<svg width="44" height="50" viewBox="0 0 44 50" fill="none" xmlns="http://www.w3.org/2000/svg">
    <path
        d="M21.0695 16.6595C23.6421 16.3406 25.4884 14.029 25.1725 11.4804C24.8565 8.9317 22.5016 7.14098 19.929 7.45991C17.3564 7.77884 15.51 10.0904 15.826 12.639C16.142 15.1877 18.4969 16.9784 21.0695 16.6595Z"
        fill="#4A7557" stroke="white" />
    <path fill-rule="evenodd" clip-rule="evenodd"
        d="M20.9357 15.5799C22.9411 15.3313 24.3393 13.5409 24.1003 11.6133C23.8613 9.68564 22.0683 8.29086 20.0629 8.53947C18.0574 8.78809 16.6593 10.5785 16.8983 12.5061C17.1372 14.4338 18.9302 15.8285 20.9357 15.5799ZM21.0587 16.5723C23.5956 16.2578 25.4016 13.9825 25.0927 11.4903C24.7837 8.998 22.4767 7.23258 19.9398 7.54707C17.403 7.86157 15.5969 10.1369 15.9059 12.6291C16.2148 15.1214 18.5218 16.8868 21.0587 16.5723Z"
        fill="#4A7557" />
    <path
        d="M30.0821 6.28892C28.9854 14.1633 23.7971 17.7601 21.3074 18.5779C19.2658 18.831 14.501 17.1816 9.73229 8.81245L5.83574 10.8228C8.26459 17.0383 13.2449 20.4259 15.4315 21.3428L16.5503 30.368L15.8632 45.7265C17.8942 48.733 20.1949 47.2259 21.0913 46.0966L22.8613 31.113L28.747 45.1475C31.4454 46.8494 32.8507 44.8085 33.2161 43.5753L28.7994 28.8495L27.6805 19.8242C31.1564 17.7642 33.2795 10.645 33.9066 7.34288L30.0821 6.28892Z"
        fill="#4A7557" />
    <path fill-rule="evenodd" clip-rule="evenodd"
        d="M29.6655 5.65547L34.4838 6.98331L34.3978 7.43616C34.0788 9.11572 33.382 11.7564 32.3218 14.2453C31.3258 16.5836 29.9661 18.893 28.2157 20.0767L29.2904 28.7462L33.7378 43.5744L33.6955 43.7173C33.4923 44.403 32.9943 45.3492 32.1184 45.8879C31.1897 46.4592 29.9563 46.5013 28.4803 45.5704L28.3469 45.4863L23.135 33.0584L21.5712 46.2962L21.4829 46.4074C20.9904 47.0279 20.0891 47.789 18.9774 47.9569C17.8012 48.1345 16.5447 47.6285 15.4489 46.0064L15.3563 45.8693L16.0489 30.3877L14.9702 21.6857C12.5743 20.5811 7.76417 17.1315 5.37004 11.0048L5.20602 10.5851L9.92928 8.1482L10.1667 8.56492C14.8569 16.7962 19.425 18.2713 21.1987 18.087C23.5466 17.2917 28.5264 13.8346 29.5869 6.21995L29.6655 5.65547ZM6.4702 11.0581C8.89605 16.8588 13.5866 20.027 15.6248 20.8817L15.892 20.9937L17.0517 30.3483L16.3702 45.5803C17.2727 46.8467 18.1455 47.0712 18.8281 46.9681C19.5454 46.8598 20.1993 46.3693 20.6121 45.8915L22.5877 29.1675L29.1457 44.8053C30.2954 45.486 31.0743 45.3561 31.5945 45.0362C32.1388 44.7014 32.5099 44.0913 32.6925 43.5699L28.3084 28.9528L27.1441 19.561L27.4256 19.3941C29.0152 18.452 30.3631 16.2919 31.4018 13.8534C32.3382 11.6552 32.9846 9.32516 33.325 7.70124L30.4911 6.92027C29.2024 14.6147 24.053 18.2024 21.4634 19.0529L21.4172 19.0681L21.3689 19.0741C19.0636 19.3599 14.266 17.5547 9.53777 9.47544L6.4702 11.0581Z"
        fill="white" />
    <path
        d="M5.34165 12.9542L10.8966 8.90535L11.5648 9.84319C11.8853 10.293 12.5097 10.3978 12.9595 10.0773C13.4093 9.75687 13.5141 9.13244 13.1937 8.68265L10.6841 5.16046C10.3637 4.71067 9.73924 4.60583 9.28944 4.92631C8.83965 5.24678 8.73481 5.87121 9.05529 6.321L9.73601 7.27641L4.16042 11.3403L2.93719 9.88494L2.621 9.50874L2.23939 9.81838L1.46298 10.4484L1.08137 10.758L1.38438 11.1449L4.46279 15.0757C4.80332 15.5106 5.43185 15.587 5.86666 15.2465L5.55838 14.8528L5.86666 15.2465C6.30147 14.906 6.37791 14.2774 6.03739 13.8426L5.34165 12.9542Z"
        fill="#4A7557" stroke="white" stroke-linecap="round" />
    <path
        d="M34.4439 9.5616L33.5465 11.1528L33.3062 11.5789L33.7348 11.8259L34.6058 12.328L35.0344 12.575L35.2886 12.157L37.9217 7.82704C38.2071 7.35773 38.0521 6.74625 37.5756 6.46126C37.099 6.17627 36.4813 6.3257 36.1959 6.795L35.5338 7.88385L29.6964 4.96435L30.2995 4.0616C30.6048 3.60474 30.476 2.9875 30.0119 2.68296C29.5478 2.37841 28.9241 2.50189 28.6189 2.95875L26.168 6.62692C25.8627 7.08378 25.9915 7.70102 26.4556 8.00556L26.732 7.59196L26.4556 8.00556C26.9197 8.31011 27.5434 8.18663 27.8486 7.72977L28.5832 6.63043L34.4439 9.5616Z"
        fill="#4A7557" stroke="white" stroke-linecap="round" />
</svg>
