<svg width="49" height="39" viewBox="0 0 49 39" fill="none" xmlns="http://www.w3.org/2000/svg">
    <path
        d="M37.8182 1.83663L38.3713 4.0289L41.5798 3.39245L47.5211 26.9415C42.3269 27.9736 31.5454 30.3876 29.9731 31.7862L29.2661 32.7995L25.6462 33.7128L24.5432 33.1561C23.0867 33.1061 18.3016 33.9794 6.79716 37.2159L0.855886 13.6668L3.77446 12.8785L3.4734 11.6571L3.2061 10.5414C9.04583 6.98075 18.1524 5.91778 20.9208 7.35212C23.0308 4.26956 31.529 1.70801 37.8182 1.83663Z"
        fill="#4A7557" />
    <path
        d="M20.9208 7.35212C23.0308 4.26956 31.529 1.70801 37.8182 1.83663L43.7595 25.3857M20.9208 7.35212L26.8763 30.9577M20.9208 7.35212C18.1524 5.91778 9.04583 6.98075 3.2061 10.5414L3.4734 11.6571L9.01996 34.159M9.01996 34.159C12.8425 32.7772 20.4738 30.3801 26.8763 30.9577M9.01996 34.159L3.77446 12.8785L0.855886 13.6668L6.79716 37.2159C18.3016 33.9794 23.0867 33.1061 24.5432 33.1561L25.6462 33.7128L29.2661 32.7995L29.9731 31.7862C31.5454 30.3876 42.3269 27.9736 47.5211 26.9415L41.5798 3.39245L38.3713 4.0289L43.7595 25.3857M9.01996 34.159C12.6775 32.6238 21.2131 30.0611 26.8777 31.2134C29.9861 29.2083 30.7324 27.9679 43.7595 25.3857M26.8763 30.9577C28.6391 29.6781 34.4721 26.7269 43.7595 25.3857"
        stroke="white" />
</svg>
