<svg width="49" height="39" viewBox="0 0 49 39" fill="none" xmlns="http://www.w3.org/2000/svg">
    <path
        d="M37.8182 1.8366L38.3713 4.02887L41.5798 3.39242L47.5211 26.9414C42.3269 27.9736 31.5454 30.3876 29.9731 31.7862L29.2661 32.7994L25.6462 33.7127L24.5432 33.1561C23.0867 33.1061 18.3016 33.9793 6.79716 37.2158L0.855886 13.6668L3.77446 12.8784L3.4734 11.6571L3.2061 10.5414C9.04583 6.98072 18.1524 5.91775 20.9208 7.35208C23.0308 4.26953 31.529 1.70798 37.8182 1.8366Z"
        fill="#74B98A" />
    <path
        d="M20.9208 7.35208C23.0308 4.26953 31.529 1.70798 37.8182 1.8366L43.7595 25.3857M20.9208 7.35208L26.8763 30.9577M20.9208 7.35208C18.1524 5.91775 9.04583 6.98072 3.2061 10.5414L3.4734 11.6571L9.01996 34.159M9.01996 34.159C12.8425 32.7771 20.4738 30.38 26.8763 30.9577M9.01996 34.159L3.77446 12.8784L0.855886 13.6668L6.79716 37.2158C18.3016 33.9793 23.0867 33.1061 24.5432 33.1561L25.6462 33.7127L29.2661 32.7994L29.9731 31.7862C31.5454 30.3876 42.3269 27.9736 47.5211 26.9414L41.5798 3.39242L38.3713 4.02887L43.7595 25.3857M9.01996 34.159C12.6775 32.6238 21.2131 30.061 26.8777 31.2134C29.9861 29.2083 30.7324 27.9678 43.7595 25.3857M26.8763 30.9577C28.6391 29.6781 34.4721 26.7269 43.7595 25.3857"
        stroke="white" />
</svg>
